<svg version="1" xmlns="http://www.w3.org/2000/svg" width="682.667" height="682.667" viewBox="0 0 512.000000 512.000000"><path d="M145.5 62.1c-59.4 34.1-109 63.1-110.2 64.5l-2.3 2.5V255c0 89.7.3 126.6 1.1 128.3.8 1.8 30.4 19.4 110.4 65.6C204.7 483.6 254.8 512 256 512c1.2 0 51.3-28.4 111.5-63.1 80.1-46.3 109.6-63.8 110.4-65.6.8-1.7 1.1-38.5 1.1-128.3V129.1l-2.2-2.5C473.6 123.1 258.7 0 255.8 0c-1.3.1-50.9 28-110.3 62.1zm171.4 26.6l60.1 67.8-60.5.3c-33.3.1-87.7.1-121 0l-60.5-.3 60.1-67.8C228.1 51.5 255.5 21 256 21c.4 0 27.8 30.5 60.9 67.7zM165.5 98c-27.9 31.4-51 57-51.4 56.8-.4-.2-13-5.7-28-12.3-17.6-7.8-26.7-12.3-25.9-12.8 5.9-3.7 155.4-89.3 155.7-89.1.1.2-22.5 26-50.4 57.4zm284.7 30.8l2.7 1.7-27.7 12.2c-15.2 6.7-27.9 12-28.3 11.7C395.8 153.8 296 41.2 296 40.7c0-.4 147.1 83.7 154.2 88.1zM78.3 156.5c21.9 9.7 28.1 12.8 27.9 14.1-.5 2.2-56.3 160.8-56.8 161.3-.2.2-.4-41.9-.4-93.7 0-51.8.2-94.2.5-94.2s13.3 5.6 28.8 12.5zM463 238.2c0 51.8-.2 93.9-.4 93.7-.6-.6-56.8-160.1-57-161.7 0-.7 11.3-6.3 27.9-13.7 15.4-6.8 28.3-12.4 28.8-12.5.4 0 .7 42.4.7 94.2zm-85.2-59.3C334.5 255.6 256.4 392.9 256 393c-.4 0-104.3-182.7-121.3-213.2l-3.8-6.8h250.2l-3.3 5.9zm-198 112.7c33.2 58.6 60.1 106.8 59.8 107.2-.7.7-185.8-24.8-186.7-25.7-.7-.7 65.1-188.1 66-188.1.3.1 27.8 48 60.9 106.6zm246.5-13.9c17.9 51.1 32.7 93.4 32.9 94.2.2 1.2-16.5 3.8-90.7 14.2-50 7-92.4 12.9-94.2 13.1l-3.2.4 3.7-6.7C298.2 351 392.6 185.1 393.1 185c.3 0 15.2 41.7 33.2 92.7zM165.7 405.4c44.7 6.2 81.5 11.5 81.8 11.8.3.3.4 16.7.3 36.6l-.3 36.1-80.5-46.5c-44.3-25.6-81.6-47.2-83-47.9-1.4-.8-1.9-1.4-1-1.4.8 0 38.1 5 82.7 11.3zm262.3-9.9c-1.4.7-38.7 22.3-83 47.8l-80.5 46.5-.3-36c-.1-19.9 0-36.3.3-36.6.6-.6 159.4-23 163.5-23.1h2.5l-2.5 1.4z"/><path d="M249.9 185.8c-14.2 3.8-27 12.4-32.6 21.9-3.7 6.3-4.4 16.3-1.4 22 1.1 2.3 2.9 4.4 4 4.8 1.1.3 4.6-.4 7.8-1.7 7-2.8 8.2-5.6 3.4-8.4-7.9-4.6-6.4-15.6 3.1-23.9 15-13.1 41.8-15.2 50.6-4 6.9 8.8 4.7 28.8-3.7 33.8-1.6.9-4.9 1.7-7.4 1.7-6.8 0-9.2 4.7-3.4 6.9 4.4 1.7 4.6 4.3 1.6 19.6-2.6 12.9-2.2 17 2.2 22 3.9 4.4 9.1 5.9 15.5 4.5 6.1-1.4 10.5-4.1 17.7-10.9 5.1-4.9 5.7-5.8 5.7-9.5v-4.1l-4.3 4.7c-4.7 5.2-11.1 9.8-13.7 9.8-.9 0-2.5-.9-3.5-2-1.4-1.6-1.6-2.9-1-7.6 1.7-14-.3-21.1-7.1-25.8l-3.6-2.5 4.8-1.4c16-4.7 23.4-12.4 23.4-24 0-10.8-7.2-19.8-20-24.8-7.7-3.1-28.5-3.6-38.1-1.1z"/><path d="M264.3 201.6c-8.2 4-14.6 12.2-17.2 21.9-.5 2.2-2.2 10.6-3.5 18.7-1.4 8.1-3.5 17.3-4.6 20.5-5.1 14.7-15 21.4-21.7 14.7-2.5-2.5-2.5-2.9-1.9-10.5.6-7.5.5-7.9-1.4-7.9-2.7 0-11 4.3-13.4 6.9-1.4 1.6-1.7 2.9-1.3 5.8 1.2 7.1 6.3 11.7 14.6 13.3 15.5 2.9 34.1-6.7 42.9-22.2 3.7-6.4 5.3-12.7 8.7-32.7 2.7-16.3 4.6-22.1 8.8-26.1 1.9-1.8 2.3-2.8 1.5-3.7-1.6-2-5.9-1.5-11.5 1.3z"/></svg>